<svg id="Layer_1" data-name="Layer 1" xmlns="http://www.w3.org/2000/svg" viewBox="0 0 204.91 57.33"><title>logo_web</title><path d="M66.58,23.12c0-1.08,0-1.25-.62-1.3l-.26,0c-.06,0,0-.23,0-.26.51,0,.84,0,1.3,0s.75,0,1.2,0c.06,0,.08.22,0,.26l-.2,0c-.6.06-.62.22-.62,1.3v1.19c0,.2,0,.39.13.39a.59.59,0,0,0,.29-.11c.14-.12.41-.39.53-.5L69.48,23a11.68,11.68,0,0,0,.8-.86.31.31,0,0,0,.07-.17s0-.07-.18-.1l-.28-.06a.17.17,0,0,1,0-.26c.36,0,.77,0,1.13,0s.71,0,1,0a.19.19,0,0,1,0,.26,2.55,2.55,0,0,0-1,.29,10.38,10.38,0,0,0-1.44,1.2l-.93.88c-.14.14-.24.24-.24.32s.06.16.2.32c1,1.12,1.77,2.05,2.58,2.9a1.29,1.29,0,0,0,.83.42l.28,0a.18.18,0,0,1,0,.26c-.27,0-.67,0-1.15,0s-.78,0-1.26,0c-.07,0-.1-.2,0-.26l.24,0c.14,0,.25-.05.25-.1s-.07-.15-.14-.24c-.2-.25-.46-.53-.86-1l-.82-.93c-.59-.66-.75-.87-1-.87s-.18.13-.18.5v1.33c0,1.08,0,1.23.6,1.29l.28,0c.06,0,0,.23,0,.26l-1.26,0c-.42,0-.77,0-1.2,0a.2.2,0,0,1,0-.26l.21,0c.55-.08.57-.21.57-1.29Z" fill="#c7b18e"/><path d="M76.45,26c-.07-.23-.11-.26-.42-.26H74.47c-.26,0-.32,0-.39.25l-.36,1.08a4,4,0,0,0-.23.86c0,.12.05.19.3.21l.34,0a.17.17,0,0,1,0,.26c-.27,0-.59,0-1.07,0s-.71,0-1,0a.2.2,0,0,1,0-.26l.34,0a.68.68,0,0,0,.62-.5c.19-.47.47-1.14.91-2.3l1.05-2.78a1.47,1.47,0,0,0,.18-.73,1.15,1.15,0,0,0,.54-.39.15.15,0,0,1,.15.09c.13.45.3.93.45,1.38L77.67,27c.3.89.43,1,.88,1.09l.28,0a.2.2,0,0,1,0,.26c-.42,0-.78,0-1.25,0s-.89,0-1.19,0a.17.17,0,0,1,0-.26l.3,0c.22,0,.36-.08.36-.19a2.1,2.1,0,0,0-.13-.55Zm-2-.92c-.08.24-.07.25.22.25h1.27c.3,0,.32,0,.23-.32l-.56-1.68a6.67,6.67,0,0,0-.24-.65h0a6.27,6.27,0,0,0-.25.61Z" fill="#c7b18e"/><path d="M85.58,26.63c0,.31,0,1.54,0,1.8a.19.19,0,0,1-.2.11C85.29,28.37,85,28,84.09,27L81.7,24.26c-.28-.32-1-1.16-1.2-1.39h0a2.61,2.61,0,0,0-.05.67v2.25a8.07,8.07,0,0,0,.19,2.13c.06.11.27.18.53.2l.32,0a.19.19,0,0,1,0,.26l-1.21,0c-.43,0-.71,0-1.07,0a.19.19,0,0,1,0-.26l.28,0c.24,0,.4-.09.45-.21A9.94,9.94,0,0,0,80,25.79v-3a.94.94,0,0,0-.23-.74,1.12,1.12,0,0,0-.64-.25l-.18,0a.18.18,0,0,1,0-.26c.43,0,1,0,1.17,0a3.41,3.41,0,0,0,.47,0,14.18,14.18,0,0,0,1.76,2.27l1,1.12c.71.79,1.22,1.37,1.7,1.87h0a1,1,0,0,0,0-.43V24.16A7.26,7.26,0,0,0,84.95,22c-.06-.09-.23-.16-.64-.21l-.18,0c-.07-.06-.06-.23,0-.26l1.22,0c.44,0,.71,0,1.06,0a.18.18,0,0,1,0,.26l-.14,0c-.33.05-.54.13-.58.22a8.31,8.31,0,0,0-.15,2.12Z" fill="#c7b18e"/><path d="M88.57,22.28a4.44,4.44,0,0,1,2.78-.88,8,8,0,0,1,1.82.25.78.78,0,0,0,.29,0c0,.24.06.89.14,1.52a.22.22,0,0,1-.28,0,1.87,1.87,0,0,0-2.11-1.51,2.82,2.82,0,0,0-2.92,3.13,3,3,0,0,0,3.06,3.36,2.2,2.2,0,0,0,2.15-1.47.22.22,0,0,1,.27,0,3.87,3.87,0,0,1-.5,1.41,2,2,0,0,0-.36.1,6.06,6.06,0,0,1-1.63.24,4.51,4.51,0,0,1-2.57-.69A3.32,3.32,0,0,1,87.27,25,3.43,3.43,0,0,1,88.57,22.28Z" fill="#c7b18e"/><path d="M95.35,23.12c0-1.07,0-1.23-.63-1.3l-.16,0c-.06,0,0-.23,0-.26.44,0,.79,0,1.22,0h1.94c.66,0,1.27,0,1.39,0a11.67,11.67,0,0,1,.16,1.37.2.2,0,0,1-.26,0c-.15-.48-.25-.85-.78-1a4.94,4.94,0,0,0-1-.06H96.5c-.31,0-.31,0-.31.41v2.06c0,.29,0,.29.34.29h.6a3.83,3.83,0,0,0,.88-.06c.12,0,.2-.1.25-.36l.08-.42a.2.2,0,0,1,.27,0c0,.25,0,.65,0,1s0,.76,0,1a.2.2,0,0,1-.27,0l-.09-.4a.44.44,0,0,0-.32-.39,3.45,3.45,0,0,0-.79-.05h-.6c-.31,0-.34,0-.34.28v1.45c0,.55,0,.9.2,1.07s.34.24,1.25.24A3,3,0,0,0,99,27.9a2.58,2.58,0,0,0,.73-1,.19.19,0,0,1,.26.07,9,9,0,0,1-.46,1.43c-.93,0-1.85,0-2.76,0h-.93l-1.4,0a.2.2,0,0,1,0-.26l.34,0c.59-.05.64-.21.64-1.29Z" fill="#c7b18e"/><path d="M101.4,23.12c0-1.08,0-1.25-.67-1.3l-.26,0c-.06,0,0-.23,0-.26l1.34,0,1.27,0c.06,0,.08.22,0,.26l-.25,0c-.61.05-.63.22-.63,1.3v3.59c0,.65,0,.92.22,1.11s.31.24,1.12.24,1.09,0,1.26-.13a2.21,2.21,0,0,0,.68-1c.06-.05.26,0,.26.06a8.32,8.32,0,0,1-.43,1.44c-.53,0-1.51,0-2.57,0h-.95c-.43,0-.76,0-1.34,0a.2.2,0,0,1,0-.26l.31,0c.6-.06.62-.21.62-1.29Z" fill="#c7b18e"/><path d="M110.14,26c-.07-.23-.11-.26-.42-.26h-1.56c-.26,0-.32,0-.39.25l-.36,1.08a4,4,0,0,0-.23.86c0,.12.05.19.3.21l.34,0a.17.17,0,0,1,0,.26c-.27,0-.59,0-1.07,0s-.71,0-1,0a.2.2,0,0,1,0-.26l.34,0a.68.68,0,0,0,.62-.5c.19-.47.47-1.14.91-2.3l1.05-2.78a1.47,1.47,0,0,0,.18-.73,1.15,1.15,0,0,0,.54-.39.15.15,0,0,1,.15.09c.13.45.3.93.45,1.38L111.37,27c.3.89.43,1,.88,1.09l.28,0a.2.2,0,0,1,0,.26c-.42,0-.78,0-1.25,0s-.89,0-1.19,0a.17.17,0,0,1,0-.26l.3,0c.22,0,.36-.08.36-.19a2.1,2.1,0,0,0-.13-.55Zm-2-.92c-.08.24-.07.25.22.25h1.27c.3,0,.32,0,.23-.32l-.56-1.68a6.67,6.67,0,0,0-.24-.65h0a6.27,6.27,0,0,0-.25.61Z" fill="#c7b18e"/><path d="M113.72,23.13c0-1,0-1.16-.45-1.21l-.33,0a.17.17,0,0,1,0-.26c.58-.05,1.29-.08,2.3-.08a3.65,3.65,0,0,1,1.72.31,1.54,1.54,0,0,1,.86,1.44A1.91,1.91,0,0,1,116.54,25c-.05.06,0,.16.05.25A11.15,11.15,0,0,0,118.66,28a1.23,1.23,0,0,0,.71.29.09.09,0,0,1,0,.14,1.58,1.58,0,0,1-.45.05c-.88,0-1.4-.26-2.13-1.3-.27-.38-.69-1.09-1-1.56a.73.73,0,0,0-.73-.33c-.46,0-.48,0-.48.23v1.3c0,1.08,0,1.21.62,1.29l.22,0a.2.2,0,0,1,0,.26c-.46,0-.81,0-1.23,0s-.8,0-1.29,0a.2.2,0,0,1,0-.26l.26,0c.6-.07.62-.21.62-1.29Zm.85,1.47a.81.81,0,0,0,0,.34s.19.05.71.05a1.73,1.73,0,0,0,1.06-.27,1.48,1.48,0,0,0,.52-1.28,1.52,1.52,0,0,0-1.65-1.59c-.64,0-.67,0-.67.33Z" fill="#c7b18e"/><path d="M120.41,23.14c0-1.09,0-1.27-.63-1.32l-.26,0c-.06,0,0-.23,0-.26.52,0,.87,0,1.3,0l1.28,0c.06,0,.08.22,0,.26l-.26,0c-.61.05-.63.23-.63,1.32v3.67c0,1.09,0,1.24.63,1.31l.26,0c.06,0,0,.23,0,.26-.52,0-.87,0-1.28,0s-.78,0-1.3,0a.2.2,0,0,1,0-.26l.26,0c.61-.07.63-.22.63-1.31Z" fill="#c7b18e"/><path d="M126.8,26c-.07-.23-.11-.26-.42-.26h-1.56c-.26,0-.32,0-.39.25l-.36,1.08a4,4,0,0,0-.23.86c0,.12.05.19.3.21l.34,0a.17.17,0,0,1,0,.26c-.27,0-.59,0-1.07,0s-.71,0-1,0a.2.2,0,0,1,0-.26l.34,0a.68.68,0,0,0,.62-.5c.19-.47.47-1.14.91-2.3l1.05-2.78a1.47,1.47,0,0,0,.18-.73,1.15,1.15,0,0,0,.54-.39.15.15,0,0,1,.15.09c.13.45.3.93.45,1.38L128,27c.3.89.43,1,.88,1.09l.28,0a.2.2,0,0,1,0,.26c-.42,0-.78,0-1.25,0s-.89,0-1.19,0a.17.17,0,0,1,0-.26l.3,0c.22,0,.36-.08.36-.19a2.1,2.1,0,0,0-.13-.55Zm-2-.92c-.08.24-.07.25.22.25h1.27c.3,0,.32,0,.23-.32l-.56-1.68a6.67,6.67,0,0,0-.24-.65h0a6.27,6.27,0,0,0-.25.61Z" fill="#c7b18e"/><path d="M135.87,26c-.07-.23-.11-.26-.42-.26h-1.56c-.26,0-.32,0-.39.25l-.36,1.08a4,4,0,0,0-.23.86c0,.12.05.19.3.21l.34,0a.17.17,0,0,1,0,.26c-.27,0-.59,0-1.07,0s-.71,0-1,0a.2.2,0,0,1,0-.26l.34,0a.68.68,0,0,0,.62-.5c.19-.47.47-1.14.91-2.3l1.05-2.78a1.47,1.47,0,0,0,.18-.73,1.15,1.15,0,0,0,.54-.39.15.15,0,0,1,.15.09c.13.45.3.93.45,1.38L137.1,27c.3.89.43,1,.88,1.09l.28,0a.2.2,0,0,1,0,.26c-.42,0-.78,0-1.25,0s-.89,0-1.19,0a.17.17,0,0,1,0-.26l.3,0c.22,0,.36-.08.36-.19a2.1,2.1,0,0,0-.13-.55Zm-2-.92c-.08.24-.07.25.22.25h1.27c.3,0,.32,0,.23-.32L135,23.32a6.67,6.67,0,0,0-.24-.65h0a6.27,6.27,0,0,0-.25.61Z" fill="#c7b18e"/><path d="M139.45,22.91c0-.72-.05-.94-.48-1l-.23,0a.15.15,0,0,1,0-.26c.88-.05,1.71-.08,2.59-.08a6.46,6.46,0,0,1,2.27.31,3.09,3.09,0,0,1,2.09,3,3.38,3.38,0,0,1-1.8,3.07,5,5,0,0,1-2.31.49c-.66,0-1.32-.08-1.68-.08s-.8,0-1.29,0a.2.2,0,0,1,0-.26l.24,0c.6-.08.62-.21.62-1.29Zm.85,3.68a1.91,1.91,0,0,0,.21,1.12c.23.32.62.42,1.27.42,2,0,2.9-1.31,2.9-3.23a2.91,2.91,0,0,0-3.25-3.05,2.31,2.31,0,0,0-1,.14c-.08.06-.1.32-.1.78Z" fill="#c7b18e"/><path d="M146,21.79a.17.17,0,0,1,0-.25c.28,0,.74,0,1.06,0s.81,0,1.18,0c.09,0,.08.18,0,.25l-.24,0c-.22,0-.34.08-.34.18a8.29,8.29,0,0,0,.54,1.38c.58,1.29,1.19,2.58,1.78,3.85.25-.52.53-1.09.79-1.67a1.89,1.89,0,0,0,.16-.42.9.9,0,0,0-.08-.27c-.36-.83-.74-1.65-1.13-2.47-.15-.32-.31-.54-.66-.57l-.25,0a.16.16,0,0,1,0-.25c.3,0,.69,0,1.1,0s.9,0,1.13,0c.07,0,.08.16,0,.25l-.27,0c-.4,0-.41.1-.22.57s.51,1.15.79,1.79c.2-.4.38-.79.61-1.35.37-.88.32-1,0-1l-.31,0c-.07-.1-.05-.22,0-.25.28,0,.59,0,1,0s.75,0,1,0c.07,0,.08.16,0,.25l-.3,0c-.43,0-.62.49-.85.92s-.65,1.28-.8,1.64a.85.85,0,0,0-.09.25.79.79,0,0,0,.07.25c.35.79.71,1.57,1.05,2.35.32-.72.63-1.44.93-2.18.21-.49.75-1.87.83-2.05a6.23,6.23,0,0,0,.31-.94c0-.14-.12-.23-.34-.24l-.3,0c-.08-.09-.07-.21,0-.25l1,0c.39,0,.69,0,1,0,.08,0,.09.16,0,.25l-.2,0c-.52.05-.61.36-1.23,1.79L154,25.35c-.45,1.05-.87,2.06-1.29,3.17a.22.22,0,0,1-.12,0,.32.32,0,0,1-.14,0c-.33-.92-.93-2.21-1.25-2.93a31.79,31.79,0,0,0-1.29,2.93.22.22,0,0,1-.12,0,.4.4,0,0,1-.15,0c-.18-.43-.58-1.36-.71-1.66-.66-1.43-1.3-2.87-2-4.3-.2-.42-.32-.7-.75-.74Z" fill="#c7b18e"/><path d="M156.22,25a3.56,3.56,0,0,1,3.67-3.64,3.39,3.39,0,0,1,3.58,3.54,3.52,3.52,0,0,1-3.58,3.6A3.47,3.47,0,0,1,156.22,25Zm6.22.22c0-1.7-.75-3.54-2.72-3.54-1.07,0-2.46.73-2.46,3,0,1.53.74,3.5,2.77,3.5C161.27,28.22,162.44,27.3,162.44,25.26Z" fill="#c7b18e"/><path d="M165.3,23.12c0-1.08,0-1.25-.62-1.3l-.26,0c-.06,0,0-.23,0-.26.51,0,.84,0,1.3,0s.75,0,1.2,0c.06,0,.08.22,0,.26l-.2,0c-.6.06-.62.22-.62,1.3v1.19c0,.2,0,.39.13.39a.59.59,0,0,0,.29-.11c.14-.12.41-.39.53-.5l1.11-1.1a11.68,11.68,0,0,0,.8-.86.31.31,0,0,0,.07-.17s0-.07-.18-.1l-.28-.06a.17.17,0,0,1,0-.26c.36,0,.77,0,1.13,0s.71,0,1,0a.19.19,0,0,1,0,.26,2.55,2.55,0,0,0-1,.29,10.38,10.38,0,0,0-1.44,1.2l-.93.88c-.14.14-.24.24-.24.32s.06.16.2.32c1,1.12,1.77,2.05,2.58,2.9a1.29,1.29,0,0,0,.83.42l.28,0a.18.18,0,0,1,0,.26c-.27,0-.67,0-1.15,0s-.78,0-1.26,0c-.07,0-.1-.2,0-.26l.24,0c.14,0,.25-.05.25-.1s-.07-.15-.14-.24c-.2-.25-.46-.53-.86-1l-.82-.93c-.59-.66-.75-.87-1-.87s-.18.13-.18.5v1.33c0,1.08,0,1.23.6,1.29l.28,0c.06,0,0,.23,0,.26l-1.26,0c-.42,0-.77,0-1.2,0a.2.2,0,0,1,0-.26l.21,0c.55-.08.57-.21.57-1.29Z" fill="#c7b18e"/><path d="M175.17,26c-.07-.23-.11-.26-.42-.26h-1.56c-.26,0-.32,0-.39.25l-.36,1.08a4,4,0,0,0-.23.86c0,.12.05.19.3.21l.34,0a.17.17,0,0,1,0,.26c-.27,0-.59,0-1.07,0s-.71,0-1,0a.2.2,0,0,1,0-.26l.34,0a.68.68,0,0,0,.62-.5c.19-.47.47-1.14.91-2.3l1.05-2.78a1.47,1.47,0,0,0,.18-.73,1.15,1.15,0,0,0,.54-.39.15.15,0,0,1,.15.09c.13.45.3.93.45,1.38L176.4,27c.3.89.43,1,.88,1.09l.28,0a.2.2,0,0,1,0,.26c-.42,0-.78,0-1.25,0s-.89,0-1.19,0a.17.17,0,0,1,0-.26l.3,0c.22,0,.36-.08.36-.19a2.1,2.1,0,0,0-.13-.55Zm-2-.92c-.08.24-.07.25.22.25h1.27c.3,0,.32,0,.23-.32l-.56-1.68a6.81,6.81,0,0,0-.24-.65h0a6.19,6.19,0,0,0-.25.61Z" fill="#c7b18e"/><path d="M179.06,22.28a4.44,4.44,0,0,1,2.78-.88,8,8,0,0,1,1.82.25.78.78,0,0,0,.29,0c0,.24.06.89.14,1.52a.22.22,0,0,1-.28,0,1.87,1.87,0,0,0-2.11-1.51,2.82,2.82,0,0,0-2.92,3.13,3,3,0,0,0,3.06,3.36A2.2,2.2,0,0,0,184,26.75a.22.22,0,0,1,.27,0,3.87,3.87,0,0,1-.5,1.41,2,2,0,0,0-.36.1,6.06,6.06,0,0,1-1.63.24,4.51,4.51,0,0,1-2.57-.69A3.32,3.32,0,0,1,177.76,25,3.43,3.43,0,0,1,179.06,22.28Z" fill="#c7b18e"/><path d="M185.84,23.12c0-1.08,0-1.25-.62-1.3l-.26,0c-.06,0,0-.23,0-.26.51,0,.84,0,1.3,0s.75,0,1.2,0c.06,0,.08.22,0,.26l-.2,0c-.6.06-.62.22-.62,1.3v1.19c0,.2,0,.39.13.39a.59.59,0,0,0,.29-.11c.14-.12.41-.39.53-.5l1.11-1.1a11.68,11.68,0,0,0,.8-.86.31.31,0,0,0,.07-.17s0-.07-.18-.1l-.28-.06a.17.17,0,0,1,0-.26c.36,0,.77,0,1.13,0s.71,0,1,0a.19.19,0,0,1,0,.26,2.55,2.55,0,0,0-1,.29,10.38,10.38,0,0,0-1.44,1.2l-.93.88c-.14.14-.24.24-.24.32s.06.16.2.32c1,1.12,1.77,2.05,2.58,2.9a1.29,1.29,0,0,0,.83.42l.28,0a.18.18,0,0,1,0,.26c-.27,0-.67,0-1.15,0s-.78,0-1.26,0c-.07,0-.1-.2,0-.26l.24,0c.14,0,.25-.05.25-.1s-.07-.15-.14-.24c-.2-.25-.46-.53-.86-1l-.82-.93c-.59-.66-.75-.87-1-.87s-.18.13-.18.5v1.33c0,1.08,0,1.23.6,1.29l.28,0c.06,0,0,.23,0,.26l-1.26,0c-.42,0-.77,0-1.2,0a.2.2,0,0,1,0-.26l.21,0c.55-.08.57-.21.57-1.29Z" fill="#c7b18e"/><path d="M195.71,26c-.07-.23-.11-.26-.42-.26h-1.56c-.26,0-.32,0-.39.25L193,27.06a4,4,0,0,0-.23.86c0,.12.05.19.3.21l.34,0a.17.17,0,0,1,0,.26c-.27,0-.59,0-1.07,0s-.71,0-1,0a.2.2,0,0,1,0-.26l.34,0a.68.68,0,0,0,.62-.5c.19-.47.47-1.14.91-2.3l1.05-2.78a1.47,1.47,0,0,0,.18-.73,1.15,1.15,0,0,0,.54-.39.15.15,0,0,1,.15.09c.13.45.3.93.45,1.38L196.94,27c.3.89.43,1,.88,1.09l.28,0a.2.2,0,0,1,0,.26c-.42,0-.78,0-1.25,0s-.89,0-1.19,0a.17.17,0,0,1,0-.26l.3,0c.22,0,.36-.08.36-.19a2.1,2.1,0,0,0-.13-.55Zm-2-.92c-.08.24-.07.25.22.25h1.27c.3,0,.32,0,.23-.32l-.56-1.68a6.67,6.67,0,0,0-.24-.65h0a6.27,6.27,0,0,0-.25.61Z" fill="#c7b18e"/><path d="M68,39.76c0,1.35,0,1.52.85,1.61l.35,0a.25.25,0,0,1,0,.32c-.73,0-1.16,0-1.67,0s-1,0-1.57,0a.25.25,0,0,1,0-.32l.27,0c.75-.1.77-.26.77-1.61V35c0-1.09,0-1.31-.6-1.38l-.46-.05a.22.22,0,0,1,0-.32,20.32,20.32,0,0,1,2.55-.1,4.64,4.64,0,0,1,2.47.51,2.22,2.22,0,0,1,1,1.93,2.18,2.18,0,0,1-1.29,2,4.35,4.35,0,0,1-1.77.39c-.09,0-.09-.23,0-.26a2,2,0,0,0,1.89-2.16,1.9,1.9,0,0,0-2.07-2.06c-.68,0-.69.05-.69.46Z" fill="#676c6e"/><path d="M74,35.15c0-1.22,0-1.44-.57-1.5L73,33.59a.22.22,0,0,1,0-.32c.72-.06,1.61-.1,2.87-.1a4.55,4.55,0,0,1,2.15.39,1.92,1.92,0,0,1,1.07,1.8A2.38,2.38,0,0,1,77.5,37.5c-.06.08,0,.21.06.31a13.88,13.88,0,0,0,2.58,3.42,1.55,1.55,0,0,0,.89.36.11.11,0,0,1,0,.18,2,2,0,0,1-.57.06c-1.09,0-1.75-.32-2.66-1.62-.33-.48-.86-1.36-1.26-1.94a.92.92,0,0,0-.91-.41c-.58,0-.6,0-.6.28v1.62c0,1.35,0,1.5.77,1.61l.27,0a.25.25,0,0,1,0,.32c-.58,0-1,0-1.53,0s-1,0-1.61,0a.25.25,0,0,1,0-.32l.32,0c.75-.09.77-.26.77-1.61ZM75,37a1,1,0,0,0,0,.42s.23.06.89.06a2.15,2.15,0,0,0,1.32-.34,1.84,1.84,0,0,0,.64-1.59,1.89,1.89,0,0,0-2.06-2c-.8,0-.84.05-.84.41Z" fill="#676c6e"/><path d="M85.91,38.71c-.09-.28-.14-.32-.53-.32H83.44c-.32,0-.4,0-.49.31L82.5,40a4.89,4.89,0,0,0-.28,1.07c0,.15.06.23.37.26l.42,0a.21.21,0,0,1,0,.32c-.33,0-.73,0-1.34,0-.42,0-.89,0-1.23,0a.25.25,0,0,1,0-.32l.42,0a.85.85,0,0,0,.77-.63c.23-.59.59-1.43,1.13-2.87L84,34.4a1.84,1.84,0,0,0,.22-.91,1.45,1.45,0,0,0,.67-.49.18.18,0,0,1,.19.12c.17.56.37,1.16.57,1.72L87.44,40c.37,1.11.54,1.3,1.09,1.36l.35,0a.25.25,0,0,1,0,.32c-.53,0-1,0-1.56,0s-1.11,0-1.48,0a.22.22,0,0,1,0-.32l.37,0c.27,0,.45-.1.45-.23a2.63,2.63,0,0,0-.17-.68Zm-2.55-1.14c-.1.3-.09.31.27.31h1.58c.37,0,.4-.05.28-.4l-.69-2.1a8.41,8.41,0,0,0-.3-.81h0a7.79,7.79,0,0,0-.31.76Z" fill="#676c6e"/><path d="M87.4,33.48a.21.21,0,0,1,0-.31c.35,0,.93,0,1.32,0s1,0,1.47,0c.12,0,.1.22,0,.31l-.3,0c-.27,0-.42.1-.42.22a10.33,10.33,0,0,0,.67,1.72c.72,1.61,1.48,3.21,2.22,4.8.31-.64.66-1.36,1-2.08a2.34,2.34,0,0,0,.21-.53,1.12,1.12,0,0,0-.1-.33c-.45-1-.93-2.06-1.41-3.09-.19-.4-.39-.67-.82-.71l-.31,0a.2.2,0,0,1,0-.31c.37,0,.86,0,1.38,0s1.12,0,1.41,0c.09,0,.1.21,0,.31l-.33,0c-.5,0-.51.13-.27.71s.63,1.44,1,2.24c.24-.5.48-1,.76-1.68.46-1.09.4-1.23,0-1.26l-.39,0c-.09-.13-.06-.27,0-.31.35,0,.73,0,1.21,0s.94,0,1.23,0c.09,0,.1.21,0,.31l-.37,0c-.54,0-.77.62-1.05,1.14s-.81,1.59-1,2a1.06,1.06,0,0,0-.12.31,1,1,0,0,0,.09.31c.44,1,.89,2,1.31,2.93.4-.9.78-1.8,1.16-2.71.26-.62.94-2.33,1-2.56a7.83,7.83,0,0,0,.39-1.17c0-.18-.15-.28-.42-.3l-.37,0c-.1-.11-.09-.26,0-.31.49,0,.84,0,1.23,0s.86,0,1.2,0c.1,0,.12.21,0,.31l-.24,0c-.64.06-.76.45-1.53,2.24l-.94,2.17c-.57,1.31-1.08,2.57-1.61,3.95a.27.27,0,0,1-.15,0,.41.41,0,0,1-.18,0c-.41-1.14-1.16-2.75-1.56-3.65a39.62,39.62,0,0,0-1.61,3.65.27.27,0,0,1-.15,0,.51.51,0,0,1-.19,0c-.22-.54-.72-1.7-.89-2.07-.82-1.79-1.62-3.57-2.46-5.36-.24-.53-.4-.87-.94-.93Z" fill="#676c6e"/><path d="M104.09,38.71c-.09-.28-.14-.32-.53-.32h-1.94c-.32,0-.4,0-.49.31L100.68,40a4.89,4.89,0,0,0-.28,1.07c0,.15.06.23.37.26l.42,0a.21.21,0,0,1,0,.32c-.33,0-.73,0-1.34,0-.42,0-.89,0-1.23,0a.25.25,0,0,1,0-.32l.42,0a.85.85,0,0,0,.77-.63c.23-.59.59-1.43,1.13-2.87l1.31-3.47a1.84,1.84,0,0,0,.22-.91,1.45,1.45,0,0,0,.67-.49.18.18,0,0,1,.19.12c.17.56.37,1.16.57,1.72L105.62,40c.37,1.11.54,1.3,1.09,1.36l.35,0a.25.25,0,0,1,0,.32c-.53,0-1,0-1.56,0s-1.11,0-1.48,0a.22.22,0,0,1,0-.32l.37,0c.27,0,.45-.1.45-.23a2.63,2.63,0,0,0-.17-.68Zm-2.55-1.14c-.1.3-.09.31.27.31h1.58c.37,0,.4-.05.28-.4l-.69-2.1a8.41,8.41,0,0,0-.3-.81h0a7.79,7.79,0,0,0-.31.76Z" fill="#676c6e"/><path d="M111.8,35.15c0-1.22,0-1.44-.57-1.5l-.41-.05a.21.21,0,0,1,0-.32c.72-.06,1.61-.1,2.87-.1a4.55,4.55,0,0,1,2.15.39,1.92,1.92,0,0,1,1.07,1.8,2.38,2.38,0,0,1-1.61,2.15c-.06.08,0,.21.06.31A13.88,13.88,0,0,0,118,41.23a1.55,1.55,0,0,0,.89.36.11.11,0,0,1,0,.18,2,2,0,0,1-.57.06c-1.09,0-1.75-.32-2.66-1.62-.33-.48-.86-1.36-1.26-1.94a.92.92,0,0,0-.91-.41c-.58,0-.6,0-.6.28v1.62c0,1.35,0,1.5.77,1.61l.27,0a.25.25,0,0,1,0,.32c-.58,0-1,0-1.53,0s-1,0-1.61,0a.25.25,0,0,1,0-.32l.32,0c.75-.09.77-.26.77-1.61ZM112.85,37a1,1,0,0,0,0,.42s.23.06.89.06a2.15,2.15,0,0,0,1.32-.34,1.84,1.84,0,0,0,.64-1.59,1.89,1.89,0,0,0-2.06-2c-.8,0-.84.05-.84.41Z" fill="#676c6e"/><path d="M118.61,37.54A4.44,4.44,0,0,1,123.19,33a4.23,4.23,0,0,1,4.46,4.41,4.39,4.39,0,0,1-4.46,4.49A4.33,4.33,0,0,1,118.61,37.54Zm7.75.27c0-2.12-.94-4.41-3.39-4.41-1.34,0-3.07.91-3.07,3.73,0,1.9.93,4.37,3.46,4.37C124.9,41.5,126.37,40.34,126.37,37.81Z" fill="#676c6e"/><path d="M129.93,34.88c0-.9-.06-1.17-.6-1.25l-.28,0a.19.19,0,0,1,0-.32c1.09-.06,2.13-.1,3.23-.1a8.07,8.07,0,0,1,2.83.39,3.85,3.85,0,0,1,2.61,3.79,4.22,4.22,0,0,1-2.25,3.83,6.22,6.22,0,0,1-2.88.62c-.82,0-1.65-.1-2.1-.1s-1,0-1.61,0a.25.25,0,0,1,0-.32l.3,0c.75-.1.77-.26.77-1.61ZM131,39.47a2.38,2.38,0,0,0,.26,1.4c.28.4.77.53,1.58.53,2.49,0,3.61-1.63,3.61-4,0-1.41-.68-3.81-4-3.81a2.86,2.86,0,0,0-1.27.18c-.1.08-.13.4-.13,1Z" fill="#676c6e"/><path d="M142.87,35.88c.67-1,1-1.44,1.25-1.83a.84.84,0,0,0,.15-.35c0-.06-.13-.1-.46-.1h-1.92c-1,0-1.61.09-1.92.42a3.65,3.65,0,0,0-.57.87.26.26,0,0,1-.32-.09,19.51,19.51,0,0,0,.53-1.93.22.22,0,0,1,.22,0c0,.31.23.32,1.27.32h3.39a13.48,13.48,0,0,0,1.48,0,.11.11,0,0,1,.08.12A25.82,25.82,0,0,0,144,36l-2.12,3.06a16.64,16.64,0,0,0-1.27,2c0,.13.13.15.36.18s1,0,1.9,0a6.19,6.19,0,0,0,2.38-.3,2.48,2.48,0,0,0,.9-1.18c.12,0,.28,0,.32.09a7.27,7.27,0,0,1-.58,1.83c-.71,0-1.44,0-2.34,0h-3.3c-.68,0-1.14,0-1.44,0a.16.16,0,0,1-.06-.15,16.39,16.39,0,0,0,1.4-1.75Z" fill="#676c6e"/><path d="M148.27,35.16c0-1.36,0-1.58-.78-1.65l-.32,0c-.08-.05-.05-.28,0-.32.64,0,1.08,0,1.62,0s1,0,1.59,0c.08,0,.1.27,0,.32l-.32,0c-.76.06-.78.28-.78,1.65v4.58c0,1.36,0,1.54.78,1.63l.32,0c.08.05.05.28,0,.32-.64,0-1.08,0-1.59,0s-1,0-1.62,0a.25.25,0,0,1,0-.32l.32,0c.76-.09.78-.27.78-1.63Z" fill="#676c6e"/><path d="M159.57,39.51c0,.39,0,1.91,0,2.25a.23.23,0,0,1-.24.14c-.15-.22-.53-.67-1.65-1.94l-3-3.39c-.35-.4-1.22-1.45-1.49-1.74h0a3.28,3.28,0,0,0-.06.84v2.8a10.05,10.05,0,0,0,.23,2.66c.08.14.33.22.66.24l.4,0a.24.24,0,0,1,0,.32c-.58,0-1,0-1.5,0s-.89,0-1.34,0a.24.24,0,0,1,0-.32l.35,0c.3,0,.5-.12.57-.26a12.43,12.43,0,0,0,.17-2.65V34.75a1.18,1.18,0,0,0-.28-.93,1.39,1.39,0,0,0-.8-.31l-.22,0c-.08-.08-.08-.27,0-.32.54,0,1.22,0,1.45,0a4.24,4.24,0,0,0,.59,0A17.74,17.74,0,0,0,155.6,36l1.25,1.4c.89,1,1.52,1.71,2.12,2.33h0a1.29,1.29,0,0,0,.05-.54V36.43a9,9,0,0,0-.26-2.66c-.08-.12-.28-.19-.8-.26l-.22,0c-.09-.08-.08-.28,0-.32.59,0,1,0,1.52,0s.89,0,1.32,0a.23.23,0,0,1,0,.32l-.18,0c-.41.06-.67.17-.72.27a10.36,10.36,0,0,0-.19,2.65Z" fill="#676c6e"/><path d="M169.67,39.51c0,.39,0,1.91,0,2.25a.23.23,0,0,1-.24.14c-.15-.22-.53-.67-1.65-1.94l-3-3.39c-.35-.4-1.22-1.45-1.49-1.74h0a3.25,3.25,0,0,0-.06.84v2.8a10.05,10.05,0,0,0,.23,2.66c.08.14.33.22.66.24l.4,0a.24.24,0,0,1,0,.32c-.58,0-1,0-1.5,0s-.89,0-1.34,0a.24.24,0,0,1,0-.32l.35,0c.3,0,.5-.12.57-.26a12.43,12.43,0,0,0,.17-2.65V34.75a1.18,1.18,0,0,0-.28-.93,1.39,1.39,0,0,0-.8-.31l-.22,0c-.08-.08-.08-.27,0-.32.54,0,1.22,0,1.45,0a4.24,4.24,0,0,0,.59,0A17.71,17.71,0,0,0,165.7,36l1.25,1.4c.89,1,1.52,1.71,2.12,2.33h0a1.29,1.29,0,0,0,.05-.54V36.43a9,9,0,0,0-.26-2.66c-.08-.12-.28-.19-.8-.26l-.22,0c-.09-.08-.08-.28,0-.32.59,0,1,0,1.52,0s.89,0,1.32,0a.23.23,0,0,1,0,.32l-.18,0c-.41.06-.67.17-.72.27a10.36,10.36,0,0,0-.19,2.65Z" fill="#676c6e"/><path d="M172.86,35.14c0-1.34,0-1.53-.78-1.62l-.21,0c-.08-.05-.05-.28,0-.32.55,0,1,0,1.52,0h2.42a17.24,17.24,0,0,0,1.74,0,14.57,14.57,0,0,1,.21,1.71.25.25,0,0,1-.32,0c-.19-.6-.31-1.05-1-1.22a6.18,6.18,0,0,0-1.25-.08h-.93c-.39,0-.39,0-.39.51v2.57c0,.36,0,.36.42.36h.75a4.72,4.72,0,0,0,1.09-.08c.15-.05.24-.13.31-.45l.1-.53a.25.25,0,0,1,.33,0c0,.31-.05.81-.05,1.3s.05,1,.05,1.23a.25.25,0,0,1-.33,0l-.12-.5a.55.55,0,0,0-.4-.49,4.25,4.25,0,0,0-1-.06h-.75c-.39,0-.42,0-.42.35v1.81c0,.68,0,1.12.24,1.34s.42.3,1.56.3a3.77,3.77,0,0,0,1.65-.19,3.23,3.23,0,0,0,.91-1.25.24.24,0,0,1,.32.09,11.28,11.28,0,0,1-.58,1.79c-1.16,0-2.3,0-3.45,0h-1.16c-.55,0-1,0-1.75,0a.25.25,0,0,1,0-.32l.42,0c.73-.06.8-.26.8-1.61Z" fill="#676c6e"/><path d="M187.09,40.38c0,.51.08.82.31.91a.11.11,0,0,1,0,.15,2.86,2.86,0,0,0-.63.12,10.07,10.07,0,0,1-2.3.33,5.35,5.35,0,0,1-3.92-1.43,4,4,0,0,1-1.18-2.92,4.41,4.41,0,0,1,1.16-3,5.32,5.32,0,0,1,4.08-1.5,7.71,7.71,0,0,1,1.63.19,3.34,3.34,0,0,0,.8.12,14.44,14.44,0,0,0,.19,1.86c0,.1-.27.11-.35,0a2.35,2.35,0,0,0-2.64-1.83,3.41,3.41,0,0,0-3.59,3.7c0,2.47,1.27,4.41,3.86,4.41.8,0,1.27-.17,1.41-.39a1.43,1.43,0,0,0,.13-.73v-.51c0-1.08,0-1.16-.84-1.25l-.57-.06a.21.21,0,0,1,0-.32c.37,0,1.08,0,1.84,0,.5,0,.94,0,1.36,0a.22.22,0,0,1,0,.32l-.21,0c-.54.06-.55.42-.55,1.08Z" fill="#676c6e"/><path d="M189,37.54A4.44,4.44,0,0,1,193.57,33,4.23,4.23,0,0,1,198,37.41a4.39,4.39,0,0,1-4.46,4.49A4.33,4.33,0,0,1,189,37.54Zm7.75.27c0-2.12-.94-4.41-3.39-4.41-1.34,0-3.07.91-3.07,3.73,0,1.9.93,4.37,3.46,4.37C195.28,41.5,196.75,40.34,196.75,37.81Z" fill="#676c6e"/><path d="M27.27,15l-.95,1.74H9v16l.08.35.24.21C9.4,33.4,10.7,34.68,14,38l-.86.87a2.93,2.93,0,0,0,0,4.11l1.22,1.23a1.74,1.74,0,0,0,2,.35l1.81,1.81a2.11,2.11,0,0,0,1.48.6,2.15,2.15,0,0,0,1.32-.45L23,48.55a2.32,2.32,0,0,0,3.27,0l.41-.42,1.81,1.77a2.32,2.32,0,0,0,3.28,0l1.08-1.1,1.3,1.3a2.66,2.66,0,0,0,1.39.77,2.54,2.54,0,0,0,2.27-.7L39,48.9a2.6,2.6,0,0,0,3.17-.33l1.64-1.65a2.59,2.59,0,0,0,3.21-.3l1.79-1.79A2.55,2.55,0,0,0,52,44.47L53.51,43a2.92,2.92,0,0,0,0-4.12l-1.94-2,5.6-5.59.23-.23V15Z" fill="#676c6e"/><path d="M16.45,41.93l-.89.92-1.17-1.19a1.11,1.11,0,0,1,0-1.57l3.22-3.27a.73.73,0,0,1,1,0L20.1,38.3l-3.64,3.64Z" fill="#676c6e"/><path d="M20.9,43.87,19.85,45l-.07.08a.33.33,0,0,1-.18,0,.3.3,0,0,1-.21-.08L17.64,43.3l4.43-4.44a.69.69,0,0,1,1,0l1,1a.69.69,0,0,1,0,1l-3.09,3.09Z" fill="#676c6e"/><path d="M25,47.29h0a.53.53,0,0,1-.71,0l-2.09-2.08,4.11-4.12a.69.69,0,0,1,1,0l1.48,1.48a.69.69,0,0,1,0,1Z" fill="#676c6e"/><path d="M32.77,46.26l-2.3,2.35a.52.52,0,0,1-.73,0l-1.8-1.76,2.72-2.72a.69.69,0,0,1,1,0l1.13,1.15A.7.7,0,0,1,32.77,46.26Z" fill="#676c6e"/><path d="M36.52,48.87a.74.74,0,0,1-1,0l-1.39-1.39a2.45,2.45,0,0,0,.69-1.71,4.4,4.4,0,0,0-.5-1.48l0,0,3.41,3.41Z" fill="#fff"/><path d="M52.23,40.1a1.12,1.12,0,0,1,0,1.58L50.71,43.2a.72.72,0,0,1-.51.21.73.73,0,0,1-.52-.21L44.2,37.72a1.8,1.8,0,0,0-2.54,0h0l5.88,5.88L45.8,45.34a.79.79,0,0,1-1,0l-5.66-5.66a1.8,1.8,0,0,0-2.54,0h0l6,6-1.61,1.61a.74.74,0,0,1-1,0L35,42.35a1.79,1.79,0,0,0-2.52,0h0l0,0-.16-.16a1.55,1.55,0,0,0-1.11-.46,1.51,1.51,0,0,0-.58.11l-2.73-2.73A1.58,1.58,0,0,0,25.77,39l-2.13-2.13a1.52,1.52,0,0,0-2.16,0l-.11.11-2.15-2.14A1.8,1.8,0,0,0,18,34.41a1.52,1.52,0,0,0-1,.45l-1.81,1.82c-2.47-2.47-3.89-3.89-4.47-4.46V18.56H25.33L19.66,28.95l3.17,1.83A4.6,4.6,0,0,0,29,29.25l1.74-2.76h7.86Z" fill="#fff"/><path d="M55.59,30.32l-5.29,5.29L39.6,24.91l-.23-.23H29.78l-2.28,3.6a2.81,2.81,0,0,1-3.78.93l-1.65-1,6.26-11.44H55.59Z" fill="#676c6e"/><path d="M55.59,30.32l-5.29,5.29L39.6,24.91l-.23-.23H29.78l-2.28,3.6a2.81,2.81,0,0,1-3.78.93l-1.65-1,6.26-11.44H55.59Z" fill="#d9c099"/><path d="M16.45,41.93l-.89.92-1.17-1.19a1.11,1.11,0,0,1,0-1.57l3.22-3.27a.73.73,0,0,1,1,0L20.1,38.3l-3.64,3.64Z" fill="#d9c099"/><path d="M20.9,43.87,19.85,45l-.07.08a.33.33,0,0,1-.18,0,.3.3,0,0,1-.21-.08L17.64,43.3l4.43-4.44a.69.69,0,0,1,1,0l1,1a.69.69,0,0,1,0,1l-3.09,3.09Z" fill="#d9c099"/><path d="M25,47.29h0a.53.53,0,0,1-.71,0l-2.09-2.08,4.11-4.12a.69.69,0,0,1,1,0l1.48,1.48a.69.69,0,0,1,0,1Z" fill="#d9c099"/><path d="M32.77,46.26l-2.3,2.35a.52.52,0,0,1-.73,0l-1.8-1.76,2.72-2.72a.69.69,0,0,1,1,0l1.13,1.15A.7.7,0,0,1,32.77,46.26Z" fill="#d9c099"/></svg>